<svg viewBox="0 0 512 512" xmlns="http://www.w3.org/2000/svg">
  <defs>
    <linearGradient id="briefly-g" x1="0" y1="1" x2="1" y2="0">
      <stop offset="0" stop-color="#1D4ED8"/>
      <stop offset="0.55" stop-color="#2563EB"/>
      <stop offset="1" stop-color="#38BDF8"/>
    </linearGradient>
  </defs>
  <!-- Speech bubble with a folded document corner (top right) -->
  <path fill="url(#briefly-g)" d="M116 84 H312 L428 200 V336 a48 48 0 0 1 -48 48 H236 L156 462 V384 h-40 a48 48 0 0 1 -48 -48 V132 a48 48 0 0 1 48 -48 Z"/>
  <!-- Folded corner -->
  <path fill="#93C5FD" d="M312 84 L428 200 H344 a32 32 0 0 1 -32 -32 Z"/>
  <!-- Summary lines -->
  <rect x="152" y="196" width="168" height="24" rx="12" fill="#EFF6FF"/>
  <rect x="152" y="244" width="208" height="24" rx="12" fill="#DBEAFE"/>
  <rect x="152" y="292" width="128" height="24" rx="12" fill="#BFDBFE"/>
  <!-- Sparkle -->
  <path fill="#7DD3FC" d="M448 34 l16 40 40 16 -40 16 -16 40 -16 -40 -40 -16 40 -16 Z"/>
</svg>
